<?xml version="1.0" encoding="UTF-8"?>
<svg xmlns="http://www.w3.org/2000/svg" viewBox="0 0 256 256">
  <defs>
    <style>
      .cls-1 {
        fill: #fff;
      }

      .cls-2 {
        fill: #22c55e;
      }
    </style>
  </defs>
  <g id="Fondos">
    <rect class="cls-2" x="8" y="8" width="240" height="240" rx="60" ry="60"/>
  </g>
  <g id="Iconos">
    <path class="cls-1" d="M101.08,63.14c-2.22-5.31-8-8.12-13.51-6.63l-1.54.42c-18.14,4.94-33.64,22.52-29.12,43.92,10.42,49.14,49.09,87.81,98.23,98.23,21.43,4.55,38.98-10.98,43.92-29.12l.42-1.54c1.52-5.53-1.32-11.32-6.6-13.51l-27.32-11.37c-4.63-1.94-10-.59-13.2,3.31l-10.84,13.25c-19.74-9.8-35.64-26.2-44.76-46.33l12.41-10.11c3.9-3.17,5.22-8.54,3.31-13.2l-11.4-27.32Z"/>
  </g>
</svg>