<?xml version="1.0" encoding="UTF-8"?>
<svg xmlns="http://www.w3.org/2000/svg" viewBox="0 0 256 256">
  <defs>
    <style>
      .cls-1 {
        fill: #fff;
      }

      .cls-2 {
        fill: #0ea5e9;
      }
    </style>
  </defs>
  <g id="Fondos">
    <rect class="cls-2" x="8" y="8" width="240" height="240" rx="60" ry="60"/>
  </g>
  <g id="Iconos">
    <path class="cls-1" d="M69.59,74.09c-7.44,0-13.48,6.04-13.48,13.48,0,4.24,1.99,8.23,5.39,10.78l58.41,43.8c4.8,3.59,11.37,3.59,16.17,0l58.41-43.8c3.4-2.56,5.39-6.54,5.39-10.78,0-7.44-6.04-13.48-13.48-13.48h-116.81ZM56.12,111.15v52.79c0,9.91,8.06,17.97,17.97,17.97h107.83c9.91,0,17.97-8.06,17.97-17.97v-52.79l-55.71,41.78c-9.58,7.19-22.77,7.19-32.35,0l-55.71-41.78Z"/>
  </g>
</svg>